<svg width="38" height="27" viewBox="0 0 38 27" fill="none" xmlns="http://www.w3.org/2000/svg">
<path d="M20.5817 1.30206C19.6054 0.325747 18.0225 0.325747 17.0462 1.30206L1.1363 17.212C0.159985 18.1883 0.159985 19.7712 1.1363 20.7475C2.11261 21.7238 3.69552 21.7238 4.67183 20.7475L18.814 6.60536L32.9561 20.7475C33.9324 21.7238 35.5153 21.7238 36.4916 20.7475C37.4679 19.7712 37.4679 18.1883 36.4916 17.212L20.5817 1.30206ZM16.314 24.4187C16.314 25.7994 17.4333 26.9187 18.814 26.9187C20.1947 26.9187 21.314 25.7994 21.314 24.4187H16.314ZM16.314 3.06982V24.4187H21.314V3.06982H16.314Z" fill="#D9D9D9"/>
</svg>
